<svg width="131" height="115" viewBox="0 0 131 115" fill="none" xmlns="http://www.w3.org/2000/svg">
<g clip-path="url(#clip0)">
<path d="M105.625 33.631C101.234 11.6007 79.8155 -2.69838 57.7852 1.69242C41.672 4.90393 29.0729 17.4951 25.8515 33.6062C10.2313 35.4064 -0.973293 49.528 0.825871 65.1491C2.48221 79.5256 14.6588 90.3721 29.1305 90.3622H49.4668C51.7132 90.3622 53.5342 88.5412 53.5342 86.2948C53.5342 84.0483 51.7132 82.2273 49.4668 82.2273H29.1305C17.8981 82.1609 8.84772 73.0024 8.91318 61.771C8.97963 50.5396 18.1381 41.4883 29.3705 41.5537C31.4434 41.5547 33.185 39.9946 33.4132 37.9346C35.4781 20.0828 51.624 7.2853 69.4758 9.35027C84.484 11.0869 96.3234 22.9253 98.0591 37.9346C98.4003 40.0313 100.217 41.5676 102.342 41.5537C113.574 41.5537 122.679 50.6586 122.679 61.891C122.679 73.1224 113.574 82.2273 102.342 82.2273H82.0055C79.759 82.2273 77.938 84.0483 77.938 86.2948C77.938 88.5412 79.759 90.3622 82.0055 90.3622H102.343C118.066 90.264 130.734 77.4388 130.636 61.7145C130.547 47.3955 119.837 35.3707 105.625 33.631V33.631Z" fill="#EFEFED"/>
<path d="M80.0142 69.8307C81.5753 71.4474 84.1501 71.492 85.7658 69.9309C87.3814 68.3708 87.4261 65.796 85.8659 64.1803C85.8332 64.1456 85.7995 64.1129 85.7658 64.0802L68.516 46.8264C66.9301 45.2356 64.3543 45.2326 62.7635 46.8185C62.7615 46.8215 62.7585 46.8235 62.7565 46.8264L45.5068 64.0802C43.8911 65.6403 43.8465 68.2151 45.4066 69.8307C46.9677 71.4464 49.5425 71.491 51.1582 69.9309C51.1919 69.8982 51.2256 69.8645 51.2583 69.8307L61.5693 59.5158V110.708C61.5693 112.954 63.3903 114.775 65.6368 114.775C67.8822 114.775 69.7032 112.954 69.7032 110.708V59.5158L80.0142 69.8307Z" fill="#EFEFED"/>
</g>
<defs>
<clipPath id="clip0">
<rect y="0.806152" width="131" height="114" fill="white"/>
</clipPath>
</defs>
</svg>
