<svg width="130" height="130" viewBox="0 0 130 130" fill="none" xmlns="http://www.w3.org/2000/svg">
<g clip-path="url(#clip0)">
<path d="M104.988 42.9249C100.598 20.8945 79.1793 6.59545 57.1489 10.9862C41.0358 14.1978 28.4367 26.7889 25.2153 42.9001C9.59508 44.7002 -1.60952 58.8218 0.189641 74.443C1.84598 88.8194 14.0226 99.666 28.4942 99.6561H48.8305C51.077 99.6561 52.898 97.8351 52.898 95.5886C52.898 93.3421 51.077 91.5211 48.8305 91.5211H28.4942C17.2619 91.4547 8.21149 82.2962 8.27695 71.0648C8.3434 59.8334 17.5019 50.7821 28.7343 50.8475C30.8072 50.8485 32.5488 49.2884 32.7769 47.2284C34.8419 29.3766 50.9878 16.5791 68.8395 18.6441C83.8478 20.3808 95.6872 32.2191 97.4228 47.2284C97.764 49.3251 99.581 50.8614 101.706 50.8475C112.938 50.8475 122.043 59.9525 122.043 71.1848C122.043 82.4162 112.938 91.5211 101.706 91.5211H81.3692C79.1227 91.5211 77.3018 93.3421 77.3018 95.5886C77.3018 97.8351 79.1227 99.6561 81.3692 99.6561H101.707C117.43 99.5579 130.097 86.7326 130 71.0083C129.911 56.6894 119.201 44.6645 104.988 42.9249V42.9249Z" fill="#E6E6E6" fill-opacity="0.6"/>
<path d="M79.378 79.1246C80.9391 80.7412 83.5139 80.7859 85.1295 79.2247C86.7452 77.6646 86.7898 75.0898 85.2297 73.4742C85.197 73.4394 85.1633 73.4067 85.1295 73.374L67.8798 56.1203C66.2939 54.5294 63.7181 54.5264 62.1272 56.1123C62.1252 56.1153 62.1223 56.1173 62.1203 56.1203L44.8705 73.374C43.2549 74.9341 43.2102 77.5089 44.7704 79.1246C46.3315 80.7402 48.9063 80.7849 50.5219 79.2247C50.5557 79.192 50.5894 79.1583 50.6221 79.1246L60.9331 68.8096V120.001C60.9331 122.248 62.7541 124.069 65.0005 124.069C67.246 124.069 69.067 122.248 69.067 120.001V68.8096L79.378 79.1246Z" fill="#E6E6E6" fill-opacity="0.6"/>
<path d="M104.988 38.731C100.598 16.7007 79.1793 2.4016 57.1489 6.79239C41.0358 10.0039 28.4367 22.5951 25.2153 38.7062C9.59508 40.5064 -1.60952 54.6279 0.189641 70.2491C1.84598 84.6256 14.0226 95.4721 28.4942 95.4622H48.8305C51.077 95.4622 52.898 93.6412 52.898 91.3947C52.898 89.1483 51.077 87.3273 48.8305 87.3273H28.4942C17.2619 87.2608 8.21149 78.1024 8.27695 66.871C8.3434 55.6396 17.5019 46.5882 28.7343 46.6537C30.8072 46.6547 32.5488 45.0945 32.7769 43.0345C34.8419 25.1827 50.9878 12.3853 68.8395 14.4502C83.8478 16.1869 95.6872 28.0253 97.4228 43.0345C97.764 45.1312 99.581 46.6676 101.706 46.6537C112.938 46.6537 122.043 55.7586 122.043 66.991C122.043 78.2224 112.938 87.3273 101.706 87.3273H81.3692C79.1227 87.3273 77.3018 89.1483 77.3018 91.3947C77.3018 93.6412 79.1227 95.4622 81.3692 95.4622H101.707C117.43 95.364 130.097 82.5388 130 66.8144C129.911 52.4955 119.201 40.4707 104.988 38.731V38.731Z" fill="#EFEFED"/>
<path d="M79.7491 74.9308C81.3102 76.5474 83.885 76.5921 85.5006 75.031C87.1163 73.4708 87.1609 70.896 85.6008 69.2804C85.5681 69.2457 85.5344 69.2129 85.5006 69.1802L68.2509 51.9265C66.665 50.3356 64.0892 50.3326 62.4983 51.9185C62.4963 51.9215 62.4934 51.9235 62.4914 51.9265L45.2416 69.1802C43.626 70.7403 43.5813 73.3151 45.1415 74.9308C46.7026 76.5465 49.2774 76.5911 50.893 75.031C50.9268 74.9982 50.9605 74.9645 50.9932 74.9308L61.3042 64.6158V115.808C61.3042 118.054 63.1252 119.875 65.3716 119.875C67.6171 119.875 69.4381 118.054 69.4381 115.808V64.6158L79.7491 74.9308Z" fill="#EFEFED"/>
</g>
<defs>
<clipPath id="clip0">
<rect width="130" height="130" fill="white"/>
</clipPath>
</defs>
</svg>
