<svg width="131" height="131" viewBox="0 0 131 131" fill="none" xmlns="http://www.w3.org/2000/svg">
<path d="M66.0596 0.806152C29.8881 0.806152 1.54834 11.5149 1.54834 25.1812C1.54834 38.8474 29.8881 49.5562 66.0596 49.5562C102.231 49.5562 130.571 38.8474 130.571 25.1812C130.571 11.5149 102.231 0.806152 66.0596 0.806152ZM66.0596 44.1396C31.8428 44.1396 7.99938 34.1458 7.99938 25.1812C7.99938 16.2165 31.8428 6.22273 66.0596 6.22273C100.276 6.22273 124.12 16.2165 124.12 25.1812C124.12 34.1458 100.276 44.1396 66.0596 44.1396Z" fill="#EFEFED"/>
<path d="M127.345 49.5562C125.565 49.5562 124.12 50.7696 124.12 52.2646C124.12 61.2292 100.276 71.223 66.0594 71.223C31.8426 71.223 7.99919 61.2292 7.99919 52.2646C7.99919 50.7696 6.55404 49.5562 4.77352 49.5562C2.99301 49.5562 1.54785 50.7696 1.54785 52.2646C1.54785 65.9308 29.8876 76.6396 66.0591 76.6396C102.231 76.6396 130.57 65.9308 130.57 52.2646C130.571 50.7696 129.126 49.5562 127.345 49.5562Z" fill="#EFEFED"/>
<path d="M127.345 76.6395C125.565 76.6395 124.12 77.853 124.12 79.348C124.12 88.3124 100.276 98.3061 66.0594 98.3061C31.8426 98.3061 7.99919 88.3124 7.99919 79.3477C7.99919 77.8527 6.55404 76.6393 4.77352 76.6393C2.99301 76.6393 1.54785 77.8527 1.54785 79.3477C1.54785 93.014 29.8876 103.723 66.0591 103.723C102.231 103.723 130.57 93.014 130.57 79.3477C130.571 77.8527 129.126 76.6395 127.345 76.6395Z" fill="#EFEFED"/>
<path d="M127.346 22.4727C125.565 22.4727 124.12 23.6861 124.12 25.1811V106.431C124.12 115.396 100.276 125.39 66.0596 125.39C31.8428 125.39 7.99938 115.396 7.99938 106.431V25.1811C7.99938 23.6861 6.55422 22.4727 4.77371 22.4727C2.99319 22.4727 1.54834 23.6861 1.54834 25.1811V106.431C1.54834 120.097 29.8881 130.806 66.0596 130.806C102.231 130.806 130.571 120.097 130.571 106.431V25.1811C130.571 23.6861 129.126 22.4727 127.346 22.4727Z" fill="#EFEFED"/>
</svg>
