<svg width="131" height="136" viewBox="0 0 131 136" fill="none" xmlns="http://www.w3.org/2000/svg">
<path d="M66.1627 6C29.9911 6 1.65137 16.7087 1.65137 30.375C1.65137 44.0413 29.9911 54.75 66.1627 54.75C102.334 54.75 130.674 44.0413 130.674 30.375C130.674 16.7087 102.334 6 66.1627 6ZM66.1627 49.3334C31.9458 49.3334 8.10241 39.3397 8.10241 30.375C8.10241 21.4103 31.9458 11.4166 66.1627 11.4166C100.38 11.4166 124.223 21.4103 124.223 30.375C124.223 39.3397 100.38 49.3334 66.1627 49.3334Z" fill="#E6E6E6" fill-opacity="0.6"/>
<path d="M127.448 54.75C125.668 54.75 124.223 55.9634 124.223 57.4584C124.223 66.4231 100.379 76.4168 66.1625 76.4168C31.9456 76.4168 8.10222 66.4231 8.10222 57.4584C8.10222 55.9634 6.65706 54.75 4.87655 54.75C3.09603 54.75 1.65088 55.9634 1.65088 57.4584C1.65088 71.1247 29.9906 81.8334 66.1622 81.8334C102.334 81.8334 130.673 71.1247 130.673 57.4584C130.674 55.9634 129.229 54.75 127.448 54.75Z" fill="#E6E6E6" fill-opacity="0.6"/>
<path d="M127.448 81.8334C125.668 81.8334 124.223 83.0468 124.223 84.5418C124.223 93.5062 100.379 103.5 66.1625 103.5C31.9456 103.5 8.10222 93.5062 8.10222 84.5416C8.10222 83.0466 6.65706 81.8331 4.87655 81.8331C3.09603 81.8331 1.65088 83.0466 1.65088 84.5416C1.65088 98.2078 29.9906 108.917 66.1622 108.917C102.334 108.917 130.673 98.2078 130.673 84.5416C130.674 83.0466 129.229 81.8334 127.448 81.8334Z" fill="#E6E6E6" fill-opacity="0.6"/>
<path d="M127.449 27.6666C125.668 27.6666 124.223 28.88 124.223 30.375V111.625C124.223 120.59 100.38 130.583 66.1627 130.583C31.9458 130.583 8.10241 120.59 8.10241 111.625V30.375C8.10241 28.88 6.65725 27.6666 4.87674 27.6666C3.09622 27.6666 1.65137 28.88 1.65137 30.375V111.625C1.65137 125.291 29.9911 136 66.1627 136C102.334 136 130.674 125.291 130.674 111.625V30.375C130.674 28.88 129.229 27.6666 127.449 27.6666Z" fill="#E6E6E6" fill-opacity="0.6"/>
<path d="M66.0596 0.806152C29.8881 0.806152 1.54834 11.5149 1.54834 25.1812C1.54834 38.8474 29.8881 49.5562 66.0596 49.5562C102.231 49.5562 130.571 38.8474 130.571 25.1812C130.571 11.5149 102.231 0.806152 66.0596 0.806152ZM66.0596 44.1396C31.8428 44.1396 7.99938 34.1458 7.99938 25.1812C7.99938 16.2165 31.8428 6.22273 66.0596 6.22273C100.276 6.22273 124.12 16.2165 124.12 25.1812C124.12 34.1458 100.276 44.1396 66.0596 44.1396Z" fill="#EFEFED"/>
<path d="M127.345 49.5562C125.565 49.5562 124.12 50.7696 124.12 52.2646C124.12 61.2292 100.276 71.223 66.0594 71.223C31.8426 71.223 7.99919 61.2292 7.99919 52.2646C7.99919 50.7696 6.55404 49.5562 4.77352 49.5562C2.99301 49.5562 1.54785 50.7696 1.54785 52.2646C1.54785 65.9308 29.8876 76.6396 66.0591 76.6396C102.231 76.6396 130.57 65.9308 130.57 52.2646C130.571 50.7696 129.126 49.5562 127.345 49.5562Z" fill="#EFEFED"/>
<path d="M127.345 76.6395C125.565 76.6395 124.12 77.853 124.12 79.348C124.12 88.3124 100.276 98.3061 66.0594 98.3061C31.8426 98.3061 7.99919 88.3124 7.99919 79.3477C7.99919 77.8527 6.55404 76.6393 4.77352 76.6393C2.99301 76.6393 1.54785 77.8527 1.54785 79.3477C1.54785 93.014 29.8876 103.723 66.0591 103.723C102.231 103.723 130.57 93.014 130.57 79.3477C130.571 77.8527 129.126 76.6395 127.345 76.6395Z" fill="#EFEFED"/>
<path d="M127.346 22.4727C125.565 22.4727 124.12 23.6861 124.12 25.1811V106.431C124.12 115.396 100.276 125.39 66.0596 125.39C31.8428 125.39 7.99938 115.396 7.99938 106.431V25.1811C7.99938 23.6861 6.55422 22.4727 4.77371 22.4727C2.99319 22.4727 1.54834 23.6861 1.54834 25.1811V106.431C1.54834 120.097 29.8881 130.806 66.0596 130.806C102.231 130.806 130.571 120.097 130.571 106.431V25.1811C130.571 23.6861 129.126 22.4727 127.346 22.4727Z" fill="#EFEFED"/>
</svg>
