<svg width="150" height="151" viewBox="0 0 150 151" fill="none" xmlns="http://www.w3.org/2000/svg">
<g clip-path="url(#clip0)">
<path d="M115.683 52.661L115.673 52.6703L115.664 52.6798L103.722 64.6719L86.2098 47.1436L98.1931 35.1888L98.1954 35.1865C101.184 32.1947 106.456 32.1742 109.423 35.1783L109.423 35.1783L109.431 35.1865L115.666 41.4277L115.675 41.4359L115.683 41.4441C117.184 42.9115 118 44.9121 118 47.053C118 49.1929 117.184 51.1935 115.683 52.661Z" stroke="#EFEFED" stroke-width="4"/>
<path d="M37.2073 96.1862L83.381 49.9711L100.898 67.504L54.722 113.722C54.5501 113.894 54.3113 114.022 54.0943 114.072L54.0861 114.074L33.6429 118.891C33.571 118.905 33.5079 118.916 33.4507 118.923C33.3851 118.932 33.341 118.934 33.3152 118.934C32.9677 118.934 32.6343 118.795 32.3864 118.547C32.0688 118.229 31.933 117.741 32.032 117.329L32.0341 117.32L36.8542 96.824L36.8561 96.8159C36.9061 96.5993 37.0342 96.3594 37.2073 96.1862Z" stroke="#EFEFED" stroke-width="4"/>
<rect x="2" y="2.93391" width="146" height="146" rx="4" stroke="#EFEFED" stroke-width="4"/>
</g>
<defs>
<clipPath id="clip0">
<rect y="0.933914" width="150" height="150" fill="white"/>
</clipPath>
</defs>
</svg>
