<svg width="100" height="100" viewBox="0 0 100 100" fill="none" xmlns="http://www.w3.org/2000/svg">
<circle cx="50" cy="50" r="48" stroke="white" stroke-width="4"/>
<g clip-path="url(#clip0)">
<path d="M38.0311 64.75C37.5751 64.75 37.1191 64.5766 36.7723 64.2275C36.0765 63.5316 36.0765 62.4035 36.7723 61.7076L43.23 55.25L36.77 48.79C36.0741 48.0941 36.0741 46.966 36.77 46.2701C37.4658 45.5743 38.594 45.5743 39.2898 46.2701L47.0086 53.9889C47.7044 54.6848 47.7044 55.8129 47.0086 56.5088L39.2898 64.2275C38.9431 64.5766 38.4871 64.75 38.0311 64.75V64.75Z" fill="white"/>
<path d="M62.9688 64.75H52.2812C51.298 64.75 50.5 63.952 50.5 62.9688C50.5 61.9855 51.298 61.1875 52.2812 61.1875H62.9688C63.952 61.1875 64.75 61.9855 64.75 62.9688C64.75 63.952 63.952 64.75 62.9688 64.75Z" fill="white"/>
<path d="M72.4688 76.625H28.5312C24.9284 76.625 22 73.6966 22 70.0938V30.9062C22 27.3034 24.9284 24.375 28.5312 24.375H72.4688C76.0716 24.375 79 27.3034 79 30.9062V70.0938C79 73.6966 76.0716 76.625 72.4688 76.625ZM28.5312 27.9375C26.8949 27.9375 25.5625 29.2699 25.5625 30.9062V70.0938C25.5625 71.7301 26.8949 73.0625 28.5312 73.0625H72.4688C74.1051 73.0625 75.4375 71.7301 75.4375 70.0938V30.9062C75.4375 29.2699 74.1051 27.9375 72.4688 27.9375H28.5312Z" fill="white"/>
<path d="M77.2188 36.25H23.7812C22.798 36.25 22 35.452 22 34.4688C22 33.4855 22.798 32.6875 23.7812 32.6875H77.2188C78.202 32.6875 79 33.4855 79 34.4688C79 35.452 78.202 36.25 77.2188 36.25Z" fill="white"/>
</g>
<defs>
<clipPath id="clip0">
<rect x="22" y="22" width="57" height="57" fill="white"/>
</clipPath>
</defs>
</svg>
