<svg width="100" height="100" viewBox="0 0 100 100" fill="none" xmlns="http://www.w3.org/2000/svg">
<circle cx="50" cy="50" r="48" stroke="white" stroke-width="4"/>
<path d="M81.9931 44.7369L72.5226 38.8428C65.8557 34.6932 58.0674 32.5 50 32.5C41.9326 32.5 34.1443 34.6932 27.4774 38.8428L18.0069 44.7369C16.1241 45.9087 15 47.8762 15 50C15 52.1238 16.1241 54.0913 18.0069 55.2631L27.4774 61.1572C34.1443 65.3068 41.9326 67.5 50 67.5C58.0674 67.5 65.8557 65.3068 72.5226 61.1572L81.9933 55.2631C83.8759 54.0913 85 52.1238 85 50C85 47.8762 83.8759 45.9087 81.9931 44.7369V44.7369ZM50 60.9375C43.9691 60.9375 39.0625 56.0309 39.0625 50C39.0625 43.9691 43.9691 39.0625 50 39.0625C56.0309 39.0625 60.9375 43.9691 60.9375 50C60.9375 56.0309 56.0309 60.9375 50 60.9375ZM20.3186 51.5488C19.719 51.1755 19.375 50.611 19.375 50C19.375 49.389 19.719 48.8245 20.3185 48.4512L29.789 42.5572C33.0687 40.516 36.6547 39.0298 40.3802 38.0962C36.9103 40.9056 34.6875 45.1978 34.6875 50C34.6875 54.8022 36.9103 59.0944 40.3802 61.904C36.6547 60.9703 33.0687 59.4842 29.789 57.443L20.3186 51.5488ZM79.6815 51.5488L70.211 57.4428C66.9313 59.484 63.3454 60.9702 59.6198 61.9038C63.0897 59.0944 65.3125 54.8022 65.3125 50C65.3125 45.1978 63.0897 40.9056 59.6198 38.096C63.3453 39.0297 66.9313 40.5158 70.211 42.557L79.6814 48.4511C80.281 48.8244 80.625 49.389 80.625 50C80.625 50.611 80.281 51.1756 79.6815 51.5488Z" fill="white"/>
<path d="M50 54.375C52.4162 54.375 54.375 52.4162 54.375 50C54.375 47.5838 52.4162 45.625 50 45.625C47.5838 45.625 45.625 47.5838 45.625 50C45.625 52.4162 47.5838 54.375 50 54.375Z" fill="white"/>
</svg>
