<svg width="234" height="155" viewBox="0 0 234 155" fill="none" xmlns="http://www.w3.org/2000/svg">
<rect x="2.47656" y="40.0119" width="229.047" height="113.422" rx="8.5" stroke="#EFEFED" stroke-width="3" />
-<rect x="14.8364" y="79.0424" width="25.8769" height="11.4385" rx="2.5" stroke="#EFEFED" stroke-width="2"/>
<rect x="126.474" y="79.0424" width="11.4385" height="11.4385" rx="2.5" stroke="#EFEFED" stroke-width="2"/>
<rect x="78.6289" y="79.0424" width="11.4385" height="11.4385" rx="2.5" stroke="#EFEFED" stroke-width="2" fill="#2E3ECA" id="leftBtn"/>
<rect x="54.7065" y="79.0424" width="11.4385" height="11.4385" rx="2.5" stroke="#EFEFED" stroke-width="2"/>
<rect x="150.396" y="79.0424" width="11.4385" height="11.4385" rx="2.5" stroke="#EFEFED" stroke-width="2"/>
<rect x="174.318" y="79.0424" width="11.4385" height="11.4385" rx="2.5" stroke="#EFEFED" stroke-width="2"/>
<rect x="197.332" y="79.0424" width="20.7203" height="11.4385" rx="2.5" stroke="#EFEFED" stroke-width="2"/>
<rect x="102.551" y="79.0424" width="11.4385" height="11.4385" rx="2.5" stroke="#EFEFED" stroke-width="2" />
<rect x="14.8374" y="55.1201" width="11.4385" height="11.4385" rx="2.5" stroke="#EFEFED" stroke-width="2"/>
<rect x="38.7588" y="55.1201" width="11.4385" height="11.4385" rx="2.5" stroke="#EFEFED" stroke-width="2"/>
<rect x="110.525" y="55.1201" width="11.4385" height="11.4385" rx="2.5" stroke="#EFEFED" stroke-width="2"/>
<rect x="62.6802" y="55.1201" width="11.4385" height="11.4385" rx="2.5" stroke="#EFEFED" stroke-width="2" />
<rect x="134.448" y="55.1201" width="11.4385" height="11.4385" rx="2.5" stroke="#EFEFED" stroke-width="2"/>
<rect x="182.292" y="55.1201" width="11.4385" height="11.4385" rx="2.5" stroke="#EFEFED" stroke-width="2"/>
<rect x="86.603" y="55.1201" width="11.4385" height="11.4385" rx="2.5" stroke="#EFEFED" stroke-width="2"/>
<rect x="158.371" y="55.1201" width="11.4385" height="11.4385" rx="2.5" stroke="#EFEFED" stroke-width="2"/>
<rect x="206.614" y="55.1201" width="11.4385" height="11.4385" rx="2.5" stroke="#EFEFED" stroke-width="2" />
<rect x="14.8364" y="102.965" width="38.2528" height="11.4385" rx="2.5" stroke="#EFEFED" stroke-width="2" />
<rect x="66.6675" y="102.965" width="11.4385" height="11.4385" rx="2.5" stroke="#EFEFED" stroke-width="2"/>
<rect x="90.5903" y="102.965" width="11.4385" height="11.4385" rx="2.5" stroke="#EFEFED" stroke-width="2"/>
<rect x="114.513" y="102.965" width="11.4385" height="11.4385" rx="2.5" stroke="#EFEFED" stroke-width="2" fill="#2E3ECA" id="middleBtn"/>
<rect x="138.435" y="102.965" width="11.4385" height="11.4385" rx="2.5" stroke="#EFEFED" stroke-width="2" fill="#2E3ECA" id="rightBtn"/>
<rect x="162.357" y="102.965" width="11.4385" height="11.4385" rx="2.5" stroke="#EFEFED" stroke-width="2"/>
<rect x="188.05" y="102.965" width="30.0022" height="11.4385" rx="2.5" stroke="#EFEFED" stroke-width="2" fill="#2E3ECA" id="EnterBtn"/>
<rect x="15.2354" y="126.887" width="11.4385" height="11.4385" rx="2.5" stroke="#EFEFED" stroke-width="2"/>
<rect x="39.1567" y="126.887" width="11.4385" height="11.4385" rx="2.5" stroke="#EFEFED" stroke-width="2"/>
<rect x="63.0791" y="126.887" width="11.4385" height="11.4385" rx="2.5" stroke="#EFEFED" stroke-width="2"/>
<rect x="158.769" y="126.887" width="11.4385" height="11.4385" rx="2.5" stroke="#EFEFED" stroke-width="2"/>
<rect x="182.691" y="126.887" width="11.4385" height="11.4385" rx="2.5" stroke="#EFEFED" stroke-width="2"/>
<rect x="206.614" y="126.887" width="11.4385" height="11.4385" rx="2.5" stroke="#EFEFED" stroke-width="2" />
<rect x="87.002" y="126.887" width="58.8791" height="11.4385" rx="2.5" stroke="#EFEFED" stroke-width="2" fill="#2E3ECA" id="SpaceBtn"/>
<path d="M115.49 38.5119C116.681 31.5842 120.028 22.1652 134.328 22.1652C152.204 22.1652 153.991 11.7285 153.991 0.262054" stroke="#EFEFED" stroke-width="4"/>

</svg>
