<svg width="194" height="155" viewBox="0 0 194 155" fill="none" xmlns="http://www.w3.org/2000/svg">
<g clip-path="url(#clip0)">
<path d="M115.278 18.1776L115.278 18.1773L113.557 11.7486C113.236 10.5085 113.975 9.24104 115.21 8.90933C116.445 8.57758 117.716 9.30565 118.055 10.5414L119.02 10.2767L118.054 10.5353L118.054 10.5355L118.054 10.5362L118.055 10.5391L118.058 10.5505L118.07 10.5949L118.115 10.7645L118.279 11.3787L118.799 13.3205C119.191 14.7851 119.621 16.393 119.775 16.9673C119.99 17.7718 119.76 18.6305 119.172 19.22C118.584 19.8093 117.728 20.0397 116.925 19.8256C116.122 19.6111 115.493 18.9831 115.278 18.1776Z" stroke="#EFEFED" stroke-width="2"/>
<path d="M176.322 74.579L169.893 72.8565C168.653 72.5241 167.915 71.2468 168.249 70.0016C168.582 68.7564 169.86 68.0191 171.1 68.3515L177.529 70.074C178.769 70.4064 179.507 71.6837 179.174 72.9289C178.84 74.1742 177.562 74.9114 176.322 74.579Z" stroke="#EFEFED" stroke-width="2"/>
<path d="M169.905 50.4378L169.903 50.4373C168.886 50.1648 168.178 49.2422 168.179 48.1862C168.179 47.13 168.888 46.2061 169.906 45.9327L176.331 44.2069C177.568 43.8853 178.833 44.6216 179.163 45.8586C179.494 47.0964 178.765 48.3695 177.533 48.7109L171.107 50.4368L171.105 50.4373C170.712 50.5439 170.298 50.544 169.905 50.4378Z" stroke="#EFEFED" stroke-width="2"/>
<path d="M160.962 30.4185L160.962 30.4187C160.373 31.0086 159.515 31.2383 158.712 31.0222C157.91 30.8065 157.283 30.1787 157.068 29.3743C156.854 28.5698 157.084 27.7113 157.672 27.1222C157.672 27.1221 157.673 27.122 157.673 27.122L162.377 22.4147C163.289 21.5162 164.752 21.5219 165.655 22.4262C166.559 23.331 166.565 24.7978 165.667 25.7113L160.962 30.4185Z" stroke="#EFEFED" stroke-width="2"/>
<path d="M139.319 19.8206C138.079 19.4882 137.341 18.2109 137.675 16.9656L139.399 10.5287C139.733 9.28349 141.011 8.54624 142.251 8.87863C143.492 9.21101 144.23 10.4883 143.896 11.7336L142.171 18.1705C141.838 19.4157 140.56 20.1529 139.319 19.8206Z" stroke="#EFEFED" stroke-width="2"/>
<path d="M100.284 27.1994L100.284 27.1996C100.873 27.7887 101.102 28.6482 100.886 29.4542C100.669 30.2589 100.041 30.8866 99.2378 31.1018C98.4351 31.3169 97.5791 31.0874 96.9918 30.4995C96.9917 30.4995 96.9917 30.4994 96.9916 30.4993L92.2929 25.7927C91.3964 24.881 91.4018 23.414 92.3074 22.5074C93.2122 21.6015 94.6755 21.5962 95.5855 22.4928L100.284 27.1994Z" stroke="#EFEFED" stroke-width="2"/>
<path d="M156.006 70.9713L156.006 70.9718C154.941 74.9926 152.999 78.7174 150.332 81.8835C142.613 65.4215 124.243 56.6811 106.555 61.1763C105.659 57.8147 104.405 54.5584 102.815 51.4634C109.045 38.3264 124.209 31.9566 137.973 36.8082C151.964 41.7396 159.816 56.6102 156.006 70.9713Z" stroke="#EFEFED" stroke-width="3"/>
<path d="M138.026 138.576H138.023C136.739 138.576 135.695 137.533 135.695 136.244C135.695 134.956 136.738 133.913 138.022 133.912C145.79 133.934 153.244 130.844 158.723 125.332C159.637 124.455 161.083 124.469 161.979 125.366C162.876 126.264 162.89 127.716 162.012 128.631C155.663 135.021 147.026 138.602 138.026 138.576Z" stroke="#EFEFED" stroke-width="2"/>
<path d="M65.0163 50.4681L65.0188 50.4667C66.1486 49.8539 67.5619 50.2738 68.1748 51.4066C68.7875 52.5391 68.3673 53.9533 67.2383 54.5665C60.3979 58.2525 55.3138 64.5243 53.1179 71.9847C52.7317 73.1916 51.4526 73.8687 50.2383 73.5073C49.0228 73.1455 48.32 71.8763 48.6565 70.6529C51.1992 62.007 57.0901 54.7389 65.0163 50.4681Z" stroke="#EFEFED" stroke-width="2"/>
<path d="M147.889 81.8293L148.183 83.3055L149.658 83.0059C151.935 82.5435 154.251 82.3113 156.574 82.3098C175.857 82.3103 191.5 98.0176 191.5 117.405C191.5 136.794 175.856 152.5 156.573 152.5H34.0487C16.8076 152.474 2.76159 138.56 2.50365 121.226L2.50365 121.226C2.24416 103.89 15.8675 89.5603 33.0996 89.0131L35.165 88.9475L34.4627 87.004C27.2586 67.0686 37.5068 45.0481 57.3385 37.8153L57.3386 37.8152C77.1669 30.582 99.0837 40.866 106.287 60.7966L106.844 62.3379L108.33 61.6469C116.18 57.9965 125.263 58.163 132.978 62.0974C140.691 66.032 146.188 73.3027 147.889 81.8293Z" stroke="#EFEFED" stroke-width="3"/>
</g>
<defs>
<clipPath id="clip0">
<rect x="0.5" y="0.257263" width="193" height="154" fill="white"/>
</clipPath>
</defs>
</svg>
