<svg width="194" height="155" viewBox="0 0 194 155" fill="none" xmlns="http://www.w3.org/2000/svg">
<g clip-path="url(#clip0)">
<path d="M109.955 17.5851L109.955 17.5849L106.63 11.8205C105.999 10.7058 106.384 9.29036 107.491 8.65029C108.598 8.01014 110.015 8.3844 110.662 9.49023L111.525 8.98499L110.659 9.48482L110.659 9.48498L110.659 9.48563L110.661 9.4882L110.667 9.49839L110.69 9.53822L110.777 9.69033L111.095 10.2411L112.1 11.9822C112.857 13.2954 113.689 14.7371 113.986 15.2521C114.402 15.9735 114.402 16.8625 113.987 17.5841C113.571 18.3055 112.804 18.7497 111.973 18.7506C111.141 18.7514 110.372 18.3074 109.955 17.5851Z" stroke="#EFEFED" stroke-width="2"/>
<path d="M183.517 56.2654H176.862C175.578 56.2654 174.534 55.2226 174.534 53.9334C174.534 52.6443 175.578 51.6014 176.862 51.6014H183.517C184.801 51.6014 185.845 52.6443 185.845 53.9334C185.845 55.2226 184.801 56.2654 183.517 56.2654Z" stroke="#EFEFED" stroke-width="2"/>
<path d="M172.232 34.2953L172.23 34.2964C171.878 34.5011 171.478 34.6084 171.071 34.6075L171.069 35.6075L171.069 34.6075C170.016 34.6075 169.094 33.8995 168.821 32.8794C168.548 31.8591 168.993 30.7832 169.906 30.2558C169.906 30.2558 169.906 30.2558 169.906 30.2558L175.666 26.9256C176.777 26.2949 178.189 26.6788 178.829 27.7881C179.469 28.8981 179.094 30.3164 177.993 30.9651L172.232 34.2953Z" stroke="#EFEFED" stroke-width="2"/>
<path d="M157.252 17.5851L157.252 17.5849L160.577 11.8205C161.208 10.7058 160.823 9.29036 159.716 8.65029C158.61 8.01063 157.195 8.38382 156.547 9.48769L153.221 15.2522C153.221 15.2522 153.221 15.2523 153.221 15.2524C152.805 15.9737 152.805 16.8625 153.22 17.5841C153.636 18.3055 154.403 18.7497 155.234 18.7506L157.252 17.5851ZM157.252 17.5851C156.835 18.3074 156.066 18.7514 155.234 18.7506L157.252 17.5851Z" stroke="#EFEFED" stroke-width="2"/>
<path d="M133.603 12.9496C132.319 12.9496 131.276 11.9068 131.276 10.6177V3.9537C131.276 2.66454 132.319 1.62172 133.603 1.62172C134.888 1.62172 135.931 2.66454 135.931 3.9537V10.6177C135.931 11.9068 134.888 12.9496 133.603 12.9496Z" stroke="#EFEFED" stroke-width="2"/>
<path d="M97.8085 30.1802L97.8083 30.1801L92.0515 26.85C90.9404 26.2194 89.5284 26.6033 88.8888 27.7125C88.2488 28.8226 88.6233 30.241 89.7251 30.8896L95.4819 34.2197C95.482 34.2198 95.4821 34.2198 95.4822 34.2199C96.2016 34.6357 97.0878 34.6359 97.8075 34.2203C98.5274 33.8046 98.9719 33.0357 98.9728 32.2023L97.8085 30.1802ZM97.8085 30.1802C98.5293 30.5969 98.9736 31.3677 98.9728 32.2023L97.8085 30.1802Z" stroke="#EFEFED" stroke-width="2"/>
<path d="M178.1 76.6067L178.099 76.6065L172.343 73.2764C171.231 72.6458 169.819 73.0298 169.18 74.139C168.54 75.249 168.914 76.6674 170.016 77.3161L175.773 80.6462C175.773 80.6462 175.773 80.6462 175.773 80.6463C176.493 81.0621 177.379 81.0623 178.099 80.6468C178.818 80.2311 179.263 79.4621 179.264 78.6288L178.1 76.6067ZM178.1 76.6067C178.82 77.0233 179.265 77.7941 179.264 78.6287L178.1 76.6067Z" stroke="#EFEFED" stroke-width="2"/>
<path d="M162.461 58.0398V58.0404C162.471 61.8653 161.688 65.6394 160.172 69.1265C148.344 55.6571 128.674 52.0956 112.845 60.7024C111.187 57.8871 109.252 55.2436 107.069 52.8112C109.743 38.8879 122.449 29.1075 136.662 30.2053C151.191 31.3275 162.424 43.4423 162.461 58.0398Z" stroke="#EFEFED" stroke-width="4"/>
<path d="M24.2291 96.5891L22.7821 97.0054C9.40408 100.854 0.891226 113.976 2.82101 127.784C4.75074 141.592 16.5332 151.869 30.4517 151.893H163.552C178.984 151.893 191.499 139.365 191.5 123.906L24.2291 96.5891ZM24.2291 96.5891V95.0834M24.2291 96.5891V95.0834M24.2291 95.0834V95.0501V94.7795M24.2291 95.0834V94.7795M24.2291 94.7795L24.1572 94.5186M24.2291 94.7795L24.1572 94.5186M24.1572 94.5186C23.0555 90.5218 22.4867 86.3966 22.4655 82.2504C22.4718 63.2215 34.1007 46.1343 51.7821 39.168C69.4646 32.2013 89.6039 36.7737 102.557 50.6975L102.56 50.7013M24.1572 94.5186L102.56 50.7013M102.56 50.7013C105.251 53.579 107.554 56.7971 109.411 60.2735L109.976 61.3312M102.56 50.7013L109.976 61.3312M109.976 61.3312H111.175M109.976 61.3312H111.175M111.175 61.3312H111.209H111.774M111.175 61.3312H111.774M111.774 61.3312L112.255 61.0355M111.774 61.3312L112.255 61.0355M112.255 61.0355C122.926 54.4816 136.302 54.2192 147.221 60.3493C158.141 66.4795 164.897 78.0448 164.879 90.5824V90.5852M112.255 61.0355L164.879 90.5852M164.879 90.5852C164.879 91.6769 164.817 92.783 164.72 93.9132L164.553 95.8645M164.879 90.5852L164.553 95.8645M164.553 95.8645L166.5 96.0725M164.553 95.8645L166.5 96.0725M166.5 96.0725C180.709 97.5899 191.493 109.591 191.5 123.905L166.5 96.0725Z" stroke="#EFEFED" stroke-width="4"/>
<path d="M138.026 138.576L138.023 139.576V138.576C136.739 138.576 135.695 137.533 135.695 136.244C135.695 134.956 136.738 133.913 138.022 133.912C145.79 133.934 153.244 130.844 158.723 125.332C159.637 124.455 161.083 124.469 161.979 125.366C162.876 126.264 162.89 127.716 162.012 128.631C155.663 135.021 147.026 138.602 138.026 138.576Z" stroke="#EFEFED" stroke-width="2"/>
<path d="M60.9099 56.4015L60.4365 55.5207L60.9123 56.4002C62.0422 55.7873 63.4555 56.2072 64.0684 57.3401C64.681 58.4726 64.2608 59.8867 63.1318 60.4999C56.2914 64.1859 51.2073 70.4577 49.0115 77.9182C48.6252 79.125 47.3461 79.8022 46.1319 79.4407C44.9163 79.0789 44.2136 77.8098 44.55 76.5863C47.0928 67.9405 52.9836 60.6724 60.9099 56.4015Z" stroke="#EFEFED" stroke-width="2"/>
</g>
<defs>
<clipPath id="clip0">
<rect x="0.5" y="0.257263" width="193" height="154" fill="white"/>
</clipPath>
</defs>
</svg>
