<svg width="32" height="32" viewBox="0 0 32 32" fill="none" xmlns="http://www.w3.org/2000/svg">
<path d="M16.0001 0.0666504C7.16358 0.0666504 0 7.23023 0 16.0667C0 23.9921 5.76835 30.5556 13.3316 31.8265V19.4048H9.47191V14.9347H13.3316V11.6387C13.3316 7.81428 15.6674 5.73021 19.0795 5.73021C20.7137 5.73021 22.1181 5.85199 22.5258 5.90562V9.90311L20.1593 9.90426C18.304 9.90426 17.9464 10.7857 17.9464 12.0796V14.9324H22.3731L21.7957 19.4025H17.9464V31.9334C25.8627 30.9699 32 24.2392 32 16.0622C32 7.23023 24.8364 0.0666504 16.0001 0.0666504Z" fill="white"/>
</svg>
